<?xml version="1.0" standalone="no"?>
<!DOCTYPE svg PUBLIC "-//W3C//DTD SVG 20010904//EN"
 "http://www.w3.org/TR/2001/REC-SVG-20010904/DTD/svg10.dtd">
<svg version="1.0" xmlns="http://www.w3.org/2000/svg"
 width="247.000000pt" height="237.000000pt" viewBox="0 0 247.000000 237.000000"
 preserveAspectRatio="xMidYMid meet">
<metadata>
Created by potrace 1.16, written by Peter Selinger 2001-2019
</metadata>
<g transform="translate(0.000000,237.000000) scale(0.100000,-0.100000)"
fill="#000000" stroke="none">
<path d="M1155 2294 c-27 -9 -88 -20 -134 -24 -117 -13 -205 -44 -256 -91 -42
-39 -165 -255 -206 -364 -21 -56 -24 -139 -9 -280 11 -105 0 -212 -35 -353
-13 -51 -29 -136 -36 -190 -11 -88 -10 -106 10 -202 12 -58 32 -135 45 -172
31 -87 103 -179 159 -204 23 -10 56 -30 74 -45 17 -15 37 -29 44 -31 10 -3 9
-33 -5 -151 -10 -80 -15 -155 -11 -167 6 -19 14 -20 116 -20 109 0 111 0 140
29 19 20 29 40 29 60 l0 31 59 0 c58 0 59 -1 65 -31 3 -17 6 -44 6 -60 0 -16
5 -29 10 -29 6 0 10 27 10 60 0 47 3 60 15 60 12 0 15 -13 15 -60 0 -33 4 -60
10 -60 6 0 10 27 10 60 l0 60 40 0 c38 0 40 -2 40 -31 0 -48 47 -89 102 -88
44 1 43 3 -5 14 -36 8 -77 51 -77 81 0 23 4 24 60 24 l59 0 8 -52 c4 -29 6
-56 5 -60 -1 -5 36 -8 82 -8 l84 0 6 38 c4 23 -3 80 -18 152 -29 139 -27 146
63 171 76 22 121 55 145 106 12 26 31 46 64 64 61 34 95 99 118 224 9 50 21
100 26 112 14 28 3 132 -27 253 -19 79 -24 133 -29 325 -4 127 -11 266 -16
310 l-10 80 35 32 c38 34 49 71 18 58 -51 -22 -68 -18 -90 22 -60 106 -303
286 -451 335 -75 24 -102 28 -197 27 -67 0 -129 -6 -160 -15z m-121 -538 c88
-67 95 -70 323 -161 102 -41 203 -86 223 -100 49 -34 105 -121 83 -129 -8 -4
-29 1 -46 9 -16 8 -39 15 -50 15 -29 0 -67 -39 -67 -69 0 -33 37 -71 69 -71
31 0 71 37 71 66 0 22 37 41 51 26 9 -10 49 -166 49 -193 0 -45 -85 -141 -149
-170 -81 -35 -206 -69 -259 -69 l-52 0 0 -35 c0 -29 -4 -36 -25 -41 -13 -3
-42 -2 -62 3 -31 7 -39 14 -41 36 -2 19 1 27 12 27 9 0 16 4 16 9 0 5 -28 12
-62 16 -155 17 -253 58 -321 135 -39 45 -45 59 -51 112 -15 145 7 308 57 421
23 51 141 217 155 217 2 0 37 -24 76 -54z m278 -1002 c37 -34 109 -133 127
-176 13 -30 20 -80 24 -159 4 -64 11 -138 18 -163 6 -26 10 -48 8 -50 -2 -2
-124 -6 -270 -10 l-266 -7 -7 153 c-7 151 -7 154 19 213 30 66 113 185 146
206 32 22 174 16 201 -7z"/>
<path d="M780 1422 c0 -14 23 -32 42 -32 13 0 18 -8 18 -28 0 -35 37 -72 71
-72 32 0 69 38 69 71 0 14 -10 35 -23 47 -24 23 -71 30 -82 12 -3 -5 -19 -10
-35 -10 -16 0 -32 5 -35 10 -7 12 -25 13 -25 2z"/>
</g>
</svg>
